<svg width="98" height="18" viewBox="0 0 98 18" fill="none" xmlns="http://www.w3.org/2000/svg">
<path fill-rule="evenodd" clip-rule="evenodd" d="M9 0C4.032 0 0 4.032 0 9C0 13.968 4.032 18 9 18C13.968 18 18 13.968 18 9C18 4.032 13.968 0 9 0ZM9 2.70001C10.494 2.70001 11.7 3.90601 11.7 5.40001C11.7 6.89401 10.494 8.10001 9 8.10001C7.506 8.10001 6.3 6.89401 6.3 5.40001C6.3 3.90601 7.506 2.70001 9 2.70001ZM9 15.48C6.75 15.48 4.761 14.328 3.6 12.582C3.627 10.791 7.2 9.81 9 9.81C10.791 9.81 14.373 10.791 14.4 12.582C13.239 14.328 11.25 15.48 9 15.48Z" fill="#011627"/>
<path d="M28.161 12.752C28.0743 12.544 27.9573 12.2797 27.81 11.959C27.6713 11.6383 27.5197 11.2917 27.355 10.919C27.1903 10.5463 27.0127 10.165 26.822 9.775C26.64 9.37633 26.4667 9.00367 26.302 8.657C26.1373 8.30167 25.9813 7.98533 25.834 7.708C25.6953 7.43067 25.5827 7.21833 25.496 7.071C25.4007 8.09367 25.3227 9.203 25.262 10.399C25.2013 11.5863 25.1493 12.7867 25.106 14H23.871C23.9057 13.22 23.9447 12.4357 23.988 11.647C24.0313 10.8497 24.079 10.0697 24.131 9.307C24.1917 8.53567 24.2523 7.786 24.313 7.058C24.3823 6.33 24.456 5.641 24.534 4.991H25.639C25.873 5.37233 26.1243 5.823 26.393 6.343C26.6617 6.863 26.9303 7.409 27.199 7.981C27.4677 8.54433 27.7277 9.112 27.979 9.684C28.2303 10.2473 28.46 10.763 28.668 11.231C28.876 10.763 29.1057 10.2473 29.357 9.684C29.6083 9.112 29.8683 8.54433 30.137 7.981C30.4057 7.409 30.6743 6.863 30.943 6.343C31.2117 5.823 31.463 5.37233 31.697 4.991H32.802C33.0967 7.89433 33.3177 10.8973 33.465 14H32.23C32.1867 12.7867 32.1347 11.5863 32.074 10.399C32.0133 9.203 31.9353 8.09367 31.84 7.071C31.7533 7.21833 31.6363 7.43067 31.489 7.708C31.3503 7.98533 31.1987 8.30167 31.034 8.657C30.8693 9.00367 30.6917 9.37633 30.501 9.775C30.319 10.165 30.1457 10.5463 29.981 10.919C29.8163 11.2917 29.6603 11.6383 29.513 11.959C29.3743 12.2797 29.2617 12.544 29.175 12.752H28.161ZM36.5732 14H35.3642V7.24H36.5732V14ZM35.9622 6.018C35.7456 6.018 35.5592 5.94867 35.4032 5.81C35.2559 5.66267 35.1822 5.46767 35.1822 5.225C35.1822 4.98233 35.2559 4.79167 35.4032 4.653C35.5592 4.50567 35.7456 4.432 35.9622 4.432C36.1789 4.432 36.3609 4.50567 36.5082 4.653C36.6642 4.79167 36.7422 4.98233 36.7422 5.225C36.7422 5.46767 36.6642 5.66267 36.5082 5.81C36.3609 5.94867 36.1789 6.018 35.9622 6.018ZM38.6523 7.435C38.9296 7.36567 39.298 7.292 39.7573 7.214C40.2166 7.136 40.7453 7.097 41.3433 7.097C41.8806 7.097 42.327 7.175 42.6823 7.331C43.0376 7.47833 43.3193 7.69067 43.5273 7.968C43.744 8.23667 43.8956 8.56167 43.9823 8.943C44.069 9.32433 44.1123 9.74467 44.1123 10.204V14H42.9033V10.464C42.9033 10.048 42.873 9.69267 42.8123 9.398C42.7603 9.10333 42.6693 8.865 42.5393 8.683C42.4093 8.501 42.236 8.371 42.0193 8.293C41.8026 8.20633 41.534 8.163 41.2133 8.163C41.0833 8.163 40.949 8.16733 40.8103 8.176C40.6716 8.18467 40.5373 8.19767 40.4073 8.215C40.286 8.22367 40.1733 8.23667 40.0693 8.254C39.974 8.27133 39.9046 8.28433 39.8613 8.293V14H38.6523V7.435ZM46.1171 14V4.12L47.3261 3.912V7.37C47.5515 7.28333 47.7898 7.21833 48.0411 7.175C48.3011 7.123 48.5568 7.097 48.8081 7.097C49.3455 7.097 49.7918 7.175 50.1471 7.331C50.5025 7.47833 50.7841 7.69067 50.9921 7.968C51.2088 8.23667 51.3605 8.56167 51.4471 8.943C51.5338 9.32433 51.5771 9.74467 51.5771 10.204V14H50.3681V10.464C50.3681 10.048 50.3378 9.69267 50.2771 9.398C50.2251 9.10333 50.1341 8.865 50.0041 8.683C49.8741 8.501 49.7008 8.371 49.4841 8.293C49.2675 8.20633 48.9988 8.163 48.6781 8.163C48.5481 8.163 48.4138 8.17167 48.2751 8.189C48.1365 8.20633 48.0021 8.228 47.8721 8.254C47.7508 8.27133 47.6381 8.293 47.5341 8.319C47.4388 8.345 47.3695 8.36667 47.3261 8.384V14H46.1171ZM55.8319 13.129C56.1179 13.129 56.3692 13.1247 56.5859 13.116C56.8112 13.0987 56.9976 13.0727 57.1449 13.038V11.023C57.0582 10.9797 56.9152 10.945 56.7159 10.919C56.5252 10.8843 56.2912 10.867 56.0139 10.867C55.8319 10.867 55.6369 10.88 55.4289 10.906C55.2296 10.932 55.0432 10.9883 54.8699 11.075C54.7052 11.153 54.5666 11.2657 54.4539 11.413C54.3412 11.5517 54.2849 11.738 54.2849 11.972C54.2849 12.4053 54.4236 12.7087 54.7009 12.882C54.9782 13.0467 55.3552 13.129 55.8319 13.129ZM55.7279 7.071C56.2132 7.071 56.6206 7.136 56.9499 7.266C57.2879 7.38733 57.5566 7.565 57.7559 7.799C57.9639 8.02433 58.1112 8.29733 58.1979 8.618C58.2846 8.93 58.3279 9.27667 58.3279 9.658V13.883C58.2239 13.9003 58.0766 13.9263 57.8859 13.961C57.7039 13.987 57.4959 14.013 57.2619 14.039C57.0279 14.065 56.7722 14.0867 56.4949 14.104C56.2262 14.13 55.9576 14.143 55.6889 14.143C55.3076 14.143 54.9566 14.104 54.6359 14.026C54.3152 13.948 54.0379 13.8267 53.8039 13.662C53.5699 13.4887 53.3879 13.2633 53.2579 12.986C53.1279 12.7087 53.0629 12.375 53.0629 11.985C53.0629 11.6123 53.1366 11.2917 53.2839 11.023C53.4399 10.7543 53.6479 10.5377 53.9079 10.373C54.1679 10.2083 54.4712 10.087 54.8179 10.009C55.1646 9.931 55.5286 9.892 55.9099 9.892C56.0312 9.892 56.1569 9.90067 56.2869 9.918C56.4169 9.92667 56.5382 9.944 56.6509 9.97C56.7722 9.98733 56.8762 10.0047 56.9629 10.022C57.0496 10.0393 57.1102 10.0523 57.1449 10.061V9.723C57.1449 9.52367 57.1232 9.32867 57.0799 9.138C57.0366 8.93867 56.9586 8.76533 56.8459 8.618C56.7332 8.462 56.5772 8.34067 56.3779 8.254C56.1872 8.15867 55.9359 8.111 55.6239 8.111C55.2252 8.111 54.8742 8.14133 54.5709 8.202C54.2762 8.254 54.0552 8.31033 53.9079 8.371L53.7649 7.37C53.9209 7.30067 54.1809 7.23567 54.5449 7.175C54.9089 7.10567 55.3032 7.071 55.7279 7.071ZM67.2967 14.195C66.664 14.195 66.0877 14.091 65.5677 13.883C65.0477 13.675 64.6014 13.3717 64.2287 12.973C63.856 12.5743 63.5657 12.0847 63.3577 11.504C63.1584 10.9147 63.0587 10.243 63.0587 9.489C63.0587 8.735 63.1714 8.06767 63.3967 7.487C63.6307 6.89767 63.9427 6.40367 64.3327 6.005C64.7227 5.60633 65.1777 5.303 65.6977 5.095C66.2177 4.887 66.7724 4.783 67.3617 4.783C67.7344 4.783 68.068 4.809 68.3627 4.861C68.666 4.913 68.926 4.97367 69.1427 5.043C69.368 5.11233 69.55 5.18167 69.6887 5.251C69.8274 5.32033 69.9227 5.37233 69.9747 5.407L69.6107 6.447C69.5327 6.395 69.42 6.33867 69.2727 6.278C69.1254 6.21733 68.9564 6.15667 68.7657 6.096C68.5837 6.03533 68.38 5.98767 68.1547 5.953C67.938 5.90967 67.717 5.888 67.4917 5.888C67.015 5.888 66.586 5.97033 66.2047 6.135C65.8234 6.29967 65.4984 6.538 65.2297 6.85C64.961 7.162 64.753 7.54333 64.6057 7.994C64.467 8.436 64.3977 8.93433 64.3977 9.489C64.3977 10.0263 64.4584 10.516 64.5797 10.958C64.7097 11.4 64.9004 11.7813 65.1517 12.102C65.403 12.414 65.715 12.6567 66.0877 12.83C66.469 13.0033 66.911 13.09 67.4137 13.09C67.9944 13.09 68.4754 13.0293 68.8567 12.908C69.238 12.7867 69.524 12.6783 69.7147 12.583L70.0397 13.623C69.979 13.6663 69.8707 13.7227 69.7147 13.792C69.5587 13.8527 69.3637 13.9133 69.1297 13.974C68.8957 14.0347 68.6227 14.0867 68.3107 14.13C67.9987 14.1733 67.6607 14.195 67.2967 14.195ZM77.1828 10.62C77.1828 11.1573 77.1048 11.6427 76.9488 12.076C76.7928 12.5093 76.5718 12.882 76.2858 13.194C76.0084 13.506 75.6748 13.7487 75.2848 13.922C74.8948 14.0867 74.4701 14.169 74.0108 14.169C73.5514 14.169 73.1268 14.0867 72.7368 13.922C72.3468 13.7487 72.0088 13.506 71.7228 13.194C71.4454 12.882 71.2288 12.5093 71.0728 12.076C70.9168 11.6427 70.8388 11.1573 70.8388 10.62C70.8388 10.0913 70.9168 9.61033 71.0728 9.177C71.2288 8.735 71.4454 8.358 71.7228 8.046C72.0088 7.734 72.3468 7.49567 72.7368 7.331C73.1268 7.15767 73.5514 7.071 74.0108 7.071C74.4701 7.071 74.8948 7.15767 75.2848 7.331C75.6748 7.49567 76.0084 7.734 76.2858 8.046C76.5718 8.358 76.7928 8.735 76.9488 9.177C77.1048 9.61033 77.1828 10.0913 77.1828 10.62ZM75.9218 10.62C75.9218 9.85733 75.7484 9.255 75.4018 8.813C75.0638 8.36233 74.6001 8.137 74.0108 8.137C73.4214 8.137 72.9534 8.36233 72.6068 8.813C72.2688 9.255 72.0998 9.85733 72.0998 10.62C72.0998 11.3827 72.2688 11.9893 72.6068 12.44C72.9534 12.882 73.4214 13.103 74.0108 13.103C74.6001 13.103 75.0638 12.882 75.4018 12.44C75.7484 11.9893 75.9218 11.3827 75.9218 10.62ZM78.8837 7.435C79.1611 7.36567 79.5294 7.292 79.9888 7.214C80.4481 7.136 80.9767 7.097 81.5748 7.097C82.1121 7.097 82.5584 7.175 82.9137 7.331C83.2691 7.47833 83.5508 7.69067 83.7588 7.968C83.9754 8.23667 84.1271 8.56167 84.2138 8.943C84.3004 9.32433 84.3438 9.74467 84.3438 10.204V14H83.1348V10.464C83.1348 10.048 83.1044 9.69267 83.0438 9.398C82.9917 9.10333 82.9007 8.865 82.7708 8.683C82.6407 8.501 82.4674 8.371 82.2507 8.293C82.0341 8.20633 81.7654 8.163 81.4448 8.163C81.3147 8.163 81.1804 8.16733 81.0418 8.176C80.9031 8.18467 80.7687 8.19767 80.6388 8.215C80.5174 8.22367 80.4047 8.23667 80.3007 8.254C80.2054 8.27133 80.1361 8.28433 80.0927 8.293V14H78.8837V7.435ZM87.4796 7.24H90.0406V8.254H87.4796V11.374C87.4796 11.712 87.5056 11.9937 87.5576 12.219C87.6096 12.4357 87.6876 12.609 87.7916 12.739C87.8956 12.8603 88.0256 12.947 88.1816 12.999C88.3376 13.051 88.5196 13.077 88.7276 13.077C89.0916 13.077 89.3819 13.038 89.5986 12.96C89.8239 12.8733 89.9799 12.8127 90.0666 12.778L90.3006 13.779C90.1793 13.8397 89.9669 13.9133 89.6636 14C89.3603 14.0953 89.0136 14.143 88.6236 14.143C88.1643 14.143 87.7829 14.0867 87.4796 13.974C87.1849 13.8527 86.9466 13.675 86.7646 13.441C86.5826 13.207 86.4526 12.921 86.3746 12.583C86.3053 12.2363 86.2706 11.8377 86.2706 11.387V5.355L87.4796 5.147V7.24ZM93.8671 13.129C94.1531 13.129 94.4044 13.1247 94.6211 13.116C94.8464 13.0987 95.0327 13.0727 95.1801 13.038V11.023C95.0934 10.9797 94.9504 10.945 94.7511 10.919C94.5604 10.8843 94.3264 10.867 94.0491 10.867C93.8671 10.867 93.6721 10.88 93.4641 10.906C93.2647 10.932 93.0784 10.9883 92.9051 11.075C92.7404 11.153 92.6017 11.2657 92.4891 11.413C92.3764 11.5517 92.3201 11.738 92.3201 11.972C92.3201 12.4053 92.4587 12.7087 92.7361 12.882C93.0134 13.0467 93.3904 13.129 93.8671 13.129ZM93.7631 7.071C94.2484 7.071 94.6557 7.136 94.9851 7.266C95.3231 7.38733 95.5917 7.565 95.7911 7.799C95.9991 8.02433 96.1464 8.29733 96.2331 8.618C96.3197 8.93 96.3631 9.27667 96.3631 9.658V13.883C96.2591 13.9003 96.1117 13.9263 95.9211 13.961C95.7391 13.987 95.5311 14.013 95.2971 14.039C95.0631 14.065 94.8074 14.0867 94.5301 14.104C94.2614 14.13 93.9927 14.143 93.7241 14.143C93.3427 14.143 92.9917 14.104 92.6711 14.026C92.3504 13.948 92.0731 13.8267 91.8391 13.662C91.6051 13.4887 91.4231 13.2633 91.2931 12.986C91.1631 12.7087 91.0981 12.375 91.0981 11.985C91.0981 11.6123 91.1717 11.2917 91.3191 11.023C91.4751 10.7543 91.6831 10.5377 91.9431 10.373C92.2031 10.2083 92.5064 10.087 92.8531 10.009C93.1997 9.931 93.5637 9.892 93.9451 9.892C94.0664 9.892 94.1921 9.90067 94.3221 9.918C94.4521 9.92667 94.5734 9.944 94.6861 9.97C94.8074 9.98733 94.9114 10.0047 94.9981 10.022C95.0847 10.0393 95.1454 10.0523 95.1801 10.061V9.723C95.1801 9.52367 95.1584 9.32867 95.1151 9.138C95.0717 8.93867 94.9937 8.76533 94.8811 8.618C94.7684 8.462 94.6124 8.34067 94.4131 8.254C94.2224 8.15867 93.9711 8.111 93.6591 8.111C93.2604 8.111 92.9094 8.14133 92.6061 8.202C92.3114 8.254 92.0904 8.31033 91.9431 8.371L91.8001 7.37C91.9561 7.30067 92.2161 7.23567 92.5801 7.175C92.9441 7.10567 93.3384 7.071 93.7631 7.071Z" fill="#7A7A7A"/>
</svg>
